<svg width="34" height="34" viewBox="0 0 34 34" fill="none" xmlns="http://www.w3.org/2000/svg">
<path d="M28.3319 34.0003H16.9999C7.65105 34.0003 0.00195312 26.3507 0.00195312 17.0011C0.00195312 7.65158 7.65105 0.00195312 16.9999 0.00195312C26.3488 0.00195312 33.9979 7.65158 33.9979 17.0011V28.3339C33.9979 31.4504 31.4482 34.0003 28.3319 34.0003Z" fill="white"/>
<path d="M16.4332 21.1374C18.5298 21.1374 20.2294 19.4377 20.2294 17.3409C20.2294 15.2442 18.5298 13.5445 16.4332 13.5445C14.3366 13.5445 12.637 15.2442 12.637 17.3409C12.637 19.4377 14.3366 21.1374 16.4332 21.1374Z" fill="#2787FF"/>
<path d="M28.3319 34.0003H16.9999C7.65105 34.0003 0.00195312 26.3507 0.00195312 17.0011C0.00195312 7.65158 7.65105 0.00195312 16.9999 0.00195312C26.3488 0.00195312 33.9979 7.65158 33.9979 17.0011V28.3339C33.9979 31.4504 31.4482 34.0003 28.3319 34.0003ZM16.9999 5.66834C10.7673 5.66834 5.66795 10.7681 5.66795 17.0011C5.66795 23.2341 10.7673 28.3339 16.9999 28.3339H28.3319V17.0011C28.3319 10.7681 23.2325 5.66834 16.9999 5.66834Z" fill="#2787FF"/>
</svg>
